<svg width="12" height="8" viewBox="0 0 12 8" fill="none" xmlns="http://www.w3.org/2000/svg">
<path d="M6.00018 7.24998C5.90164 7.25044 5.804 7.23122 5.71299 7.19344C5.62197 7.15567 5.53942 7.10009 5.47018 7.02998L0.47018 2.02998C0.370455 1.88408 0.325452 1.70765 0.34311 1.53181C0.360767 1.35598 0.43995 1.19202 0.566693 1.06886C0.693436 0.945708 0.859597 0.871264 1.03587 0.858661C1.21214 0.846058 1.38721 0.896106 1.53018 0.999977L6.00018 5.43998L10.4702 0.999977C10.6111 0.908587 10.7787 0.867166 10.946 0.882353C11.1133 0.897541 11.2707 0.968457 11.3929 1.08374C11.5151 1.19902 11.595 1.35198 11.6199 1.51812C11.6448 1.68425 11.6132 1.85394 11.5302 1.99998L6.53018 6.99998C6.46351 7.07554 6.38212 7.13669 6.29098 7.17968C6.19984 7.22266 6.10089 7.24659 6.00018 7.24998Z" fill="#637381"/>
</svg>
