<svg version="1.2" xmlns="http://www.w3.org/2000/svg" viewBox="0 0 858 352" width="858" height="352">
	<title>pd-logo</title>
	<style>
		.s0 { fill: #000000 } 
	</style>
	<g>
		<path class="s0" d="m196.5 5.5c-7 2.6-13.5 8.4-17.4 15.5-3.4 6.2-3.6 7-3.6 16 0 11.2 2.2 16.7 9.3 23.8 6.5 6.5 12 8.7 22.2 8.7 7.3 0 9.3-0.4 14.2-2.8 11-5.4 16.9-14.8 17.6-28.2 0.5-9.8-1.9-17-7.7-23.7-6.2-7-13-10.1-22.6-10.5-5.3-0.2-9.4 0.2-12 1.2z"/>
		<path class="s0" d="m425.7 32c-9.9 2.5-19.6 9.7-23.9 17.7-4.7 8.8-5 12.1-4.6 66.8l0.3 51 3.3 6.7c3.9 7.9 9.2 13 18 17.1 5.6 2.6 8 3.1 16.8 3.5 8.8 0.4 11.4 0.1 17.2-1.7 11.7-3.8 21.2-12.9 24.4-23.4 1-3.2 1.3-17.5 1.3-57.7v-53.5l-3.3-6.7c-3.9-7.9-9.2-13-17.9-17-5.6-2.7-7.7-3.1-17.1-3.4-5.9-0.2-12.4 0.1-14.5 0.6zm21.4 25.1c6 4.2 5.9 3.3 5.9 55.6 0 54.4 0.2 52.8-8.1 57.1-7.8 4.1-15.9 1.8-20.4-5.9-1.9-3.3-2-5.2-2-50.9 0-45.9 0.1-47.6 2-51 2.9-4.9 9.7-8.3 15.3-7.6 2.4 0.3 5.7 1.5 7.3 2.7z"/>
		<path class="s0" d="m303 112.5v79.5h12.8 12.7l-0.3-30.9-0.3-30.8 11.3-0.5c22-1.1 34.7-9 39.6-24.7 1.4-4.5 1.7-9.4 1.7-24.6 0-17.4-0.2-19.5-2.3-24.6-2.7-6.8-7.9-13.1-13.6-16.4-7.3-4.2-16-5.6-39.8-6.1l-21.8-0.4zm46.7-52.9c4.2 3.1 5.2 7.4 5.2 22.4 0.1 20.5-2.6 24-18.6 24h-8.3v-24.6-24.6l9.4 0.4c7.7 0.2 10 0.7 12.3 2.4z"/>
		<path class="s0" d="m496 112.6v79.4h13 13v-32.5-32.5h5.3 5.3l6.8 23.2c3.8 12.8 8.1 27.3 9.6 32.3l2.6 9 13.8 0.3c7.6 0.1 13.5-0.1 13.3-0.5-0.3-0.4-5.3-16.1-11.2-34.7-10.1-31.8-10.6-34-8.9-34.9 4.8-2.6 12.2-11.4 14.5-17.2 2.1-5.5 2.3-7.5 2.3-25 0.1-17.7-0.1-19.4-2.3-24.9-3.2-8-9.9-14.6-17.7-17.5-7.1-2.7-23.4-4.2-44.6-4l-14.8 0.1zm46.8-54.5c1.7 0.6 3.8 2.1 4.7 3.5 3.8 5.8 3.7 30.9-0.1 36.2-3.4 4.6-7.9 6.2-17.1 6.2h-8.3v-23.5-23.5h8.9c4.8 0 10.2 0.5 11.9 1.1z"/>
		<path class="s0" d="m584 45v12h13 13v67.5 67.5h13 13v-67.5-67.5h13 13v-11.9-12h-39l-39-0.1z"/>
		<path class="s0" d="m678.2 81.7c-5.1 26.8-11.9 62.5-15.1 79.3l-5.7 30.5 12.4 0.3c6.9 0.1 12.7 0 13-0.2 0.2-0.3 1.5-6.5 2.8-13.8 1.3-7.3 2.6-14.8 2.9-16.6l0.6-3.2h14.8 14.8l2.8 17 2.8 17h13.4 13.5l-0.6-2.8c-0.3-1.5-5.7-29.7-12.1-62.7-6.4-33-13-67.4-14.8-76.5l-3.2-16.5-16.6-0.3-16.5-0.3zm31.8 19.3c2.7 17.8 5 32.8 5 33.2 0 0.4-5.1 0.8-11.3 0.8h-11.3l5.7-34.3c3.2-18.8 5.8-34.4 5.9-34.7 0.4-0.9 1 2.4 6 35z"/>
		<path class="s0" d="m764 112.6v79.4h33 33v-11.5-11.5h-20.5-20.5v-68-68l-12.5 0.1-12.5 0.2z"/>
		<path class="s0" d="m129 64c-39.9 0.7-37.1-0.9-59.1 32.9-15.6 24-16.7 26.6-14.4 32.8 2.9 7.6 11.4 10.5 18.2 6.3 2.1-1.2 7.5-8.3 15.4-20.2 6.7-10.1 13-18.8 13.8-19.5 1.6-1.2 31.1-2 31.1-0.8 0 0.3-6.8 15.9-15.2 34.7-13.6 30.8-15.2 35-15.6 41-0.6 9.4 2.7 15.3 12.3 21.9 28.7 19.9 54.5 38.6 54.4 39.4 0 0.5-11 9.1-24.6 19-13.5 9.9-25.6 19.2-26.9 20.8-6 7.1-3.6 19 4.6 23.2 3.7 1.9 10.7 1.9 14.2 0.1 1.5-0.8 18.3-12.7 37.2-26.5 24.3-17.7 35.1-26.2 36.7-28.8 3-4.8 3.7-13 1.5-18.6-2-5.2-5.5-8.7-26.6-25.7-9.1-7.3-17.9-14.7-19.7-16.3l-3.2-3 12.5-24.8c6.8-13.7 12.7-24.9 13.2-24.9 0.4 0 3.8 5.6 7.5 12.5 9.1 16.5 12.5 19.4 21.7 18.6 3.7-0.3 51.1-21 53.8-23.5 9.9-8.9 4.4-23.6-8.7-23.6-3.4 0-8.4 1.8-21.4 7.7-14.7 6.6-17.1 7.4-18.1 6.1-0.6-0.8-6.7-11.5-13.6-23.7l-12.5-22.2-6-3.4c-3.3-1.9-8.2-5.2-10.8-7.4-5.1-4.3-9.4-5.5-17.7-4.9-2.5 0.2-17.8 0.5-34 0.8z"/>
		<path class="s0" d="m88.6 199.3c-3.9 6.7-10.4 18.3-14.6 25.8-4.2 7.5-8.9 15.2-10.4 17-1.6 1.9-15.2 16.4-30.2 32.2-29.3 30.9-30.3 32.3-28.8 40.5 0.9 5 6.8 10.8 11.8 11.7 7.8 1.5 9.2 0.5 45.7-33.9l34.4-32.3 15.4-22.8c8.4-12.5 14.9-23 14.4-23.4-5.8-3.8-25.8-21.1-27.4-23.7-1.1-1.9-2.4-3.4-2.7-3.4-0.4 0-3.8 5.6-7.6 12.3z"/>
		<path class="s0" d="m481.3 222.8c-10.1 3.6-17 10.5-19.4 19.6-1.2 4.4-1.5 79.5-0.3 84.3 2.2 8.9 9.8 16.9 19.1 19.8 7.4 2.4 18.3 2.4 25 0.1 6.2-2.1 13.5-8.3 16.6-14 2.2-4 2.2-4.6 2.2-47.6 0-43 0-43.6-2.2-47.6-5.4-10.1-14.5-15.4-27.6-16-6.3-0.4-9.4 0-13.4 1.4zm18.7 19.1c5 3.6 5 4 4.8 44.4l-0.3 37.9-3.3 2.9c-2.7 2.4-4.1 2.9-8.5 2.9-5.5-0.1-7.2-0.9-10-5-1.5-2.2-1.7-6.3-1.7-40.1 0-37.1 0-37.7 2.2-40.4 4.3-5.5 11.4-6.6 16.8-2.6z"/>
		<path class="s0" d="m811.3 222.5c-9.6 2.7-15.6 7.6-19.5 16-2.3 5-2.3 5.3-2.3 47v42l2.4 4.5c4.7 9.1 11.7 13.9 23 16 15.4 2.8 30.6-4.3 36.5-17 2-4.3 2.1-6 2.1-46.1v-41.5l-3-5.9c-3.3-6.5-10-12.3-16.3-14.4-6.1-2-17.1-2.3-22.9-0.6zm18.7 21.1l3 3.5v37.5c0 41.5-0.1 41.9-6.4 44.6-6.8 2.8-13.6 0.3-16.2-5.7-2-4.9-2.1-72-0.1-76.8 1.7-4 3.8-5.8 8-6.6 5.2-1.1 8.5-0.1 11.7 3.5z"/>
		<path class="s0" d="m248.8 284.4l-0.3 61.8 20.5-0.4c19-0.3 20.9-0.5 25.8-2.7 6.9-3.1 12.7-9.7 15-17 1.5-4.9 1.7-10.3 1.7-41.6 0-25.9-0.4-37.1-1.2-40.1-1.8-5.8-6.2-12-10.8-15.1-6.6-4.5-11.7-5.4-31.7-6l-18.8-0.6zm37.1-40.9c1.6 0.8 3.4 2.8 4 4.6 0.7 2.1 1.1 14.7 1.1 36.3 0 32.4-0.1 33.3-2.2 37.6-2.6 5.2-6.1 6.9-14.5 6.9l-5.3 0.1v-43.5-43.5h7c4.3 0 8.2 0.6 9.9 1.5z"/>
		<path class="s0" d="m324 284.5v61.5h27 27v-9-9h-16.5-16.5v-17.5-17.5h13.5 13.5v-9-9h-13.5-13.5v-17-17h16.5 16.5v-9-9h-27-27z"/>
		<path class="s0" d="m388 284.4v61.6h10 10v-23.4-23.3l9.8-0.6c11.8-0.7 15.8-1.8 21.4-6 8.1-6.1 11.6-18.6 10.4-37.3-0.7-12.3-3.4-19.1-9.3-24.4-6.8-6-11.7-7.1-33.5-7.7l-18.8-0.6zm34-42.1c5.9 2 7.1 5.9 6.8 20.9-0.3 12.3-0.4 12.9-3 15.4-2.3 2.3-3.7 2.8-10.2 3.2l-7.6 0.5v-20c0-11 0.3-20.3 0.7-20.6 1-1.1 9.5-0.7 13.3 0.6z"/>
		<path class="s0" d="m538.5 284.4v61.6h10.3 10.2v-24.8-24.7h4c3.9-0.1 4 0 5.5 5 0.8 2.7 4.1 13.8 7.3 24.5l5.9 19.5 10.5 0.3 10.6 0.3-8.3-25.3c-4.6-13.9-8.4-25.8-8.6-26.4-0.2-0.6 1.6-2.7 4.1-4.5 2.5-1.9 5.5-5.3 6.7-7.5 5-9 5.7-33.1 1.3-43.2-1.3-3-3.9-6.7-6.1-8.6-6.7-5.7-12-6.8-33.9-7.4l-19.5-0.4zm37.2-41.3c3.6 2.2 4.8 6.6 4.7 16.9-0.1 15-2.2 17.7-14.3 18.7l-7.1 0.6v-19.3-19.3l7.3 0.5c3.9 0.3 8.2 1.1 9.4 1.9z"/>
		<path class="s0" d="m606 232v9h11 11v52.5 52.5h10 10v-52.5-52.5h10.5 10.5v-9-9h-31.5-31.5z"/>
		<path class="s0" d="m680 284.5v61.5h10 10v-61.5-61.5h-10-10z"/>
		<path class="s0" d="m709.5 225.2c0.3 1.3 5.5 28.2 11.5 59.8 6.1 31.6 11.3 58.3 11.6 59.2 0.5 1.6 2 1.8 13.3 1.8h12.7l4.2-22.3c2.4-12.2 7.6-39.8 11.7-61.2 4.1-21.5 7.5-39.1 7.5-39.3 0-0.1-4.6-0.1-10.2 0l-10.1 0.3-7.7 46.5c-4.3 25.6-8 45.8-8.3 45-0.5-1.5-14.8-89.8-14.7-91.3 0-0.4-5-0.7-11-0.7-10.9 0-11 0-10.5 2.2z"/>
	</g>
</svg>